<svg id="Calque_1" data-name="Calque 1" xmlns="http://www.w3.org/2000/svg" viewBox="0 0 116 116"><defs><style>.cls-1{fill:none;stroke:#22ffbd;stroke-miterlimit:10;stroke-width:2px;}.cls-2{fill:#22ffbd;}</style></defs><title>icone_client</title><circle class="cls-1" cx="58" cy="58" r="57"/><path class="cls-2" d="M78.66,39.05a1,1,0,0,1-.82-1.49l9.37-15a1,1,0,1,1,1.65,1l-9.37,15A1,1,0,0,1,78.66,39.05Z"/><path class="cls-2" d="M57.87,93.24c-14.52,0-36.13-2-36.13-7.67V52.09c0-7.48,16.53-19.39,36.13-19.39C77.64,32.7,94,45.54,94,52.09V85.57C94,91.2,72.39,93.24,57.87,93.24Zm0-58.6c-18.71,0-34.19,11.55-34.19,17.44V85.57c0,2,11.74,5.73,34.19,5.73s34.19-3.73,34.19-5.73V52.09C92.06,47,77.26,34.65,57.87,34.65Z"/><path class="cls-2" d="M49.92,65.27a1,1,0,0,1-.69-.28,8.12,8.12,0,0,0-11.47,0,1,1,0,0,1-1.37-1.37,10.06,10.06,0,0,1,14.21,0,1,1,0,0,1-.69,1.66Z"/><path class="cls-2" d="M78.66,65.27A1,1,0,0,1,78,65a8.12,8.12,0,0,0-11.46,0,1,1,0,0,1-1.37-1.37,10.06,10.06,0,0,1,14.21,0,1,1,0,0,1-.69,1.66Z"/><path class="cls-2" d="M81.61,74H34.13a4.86,4.86,0,0,1-4.86-4.86V56.81A4.86,4.86,0,0,1,34.13,52H81.61a4.86,4.86,0,0,1,4.86,4.86V69.13A4.86,4.86,0,0,1,81.61,74ZM34.13,53.9a2.92,2.92,0,0,0-2.91,2.91V69.13A2.92,2.92,0,0,0,34.13,72H81.61a2.92,2.92,0,0,0,2.91-2.91V56.81a2.92,2.92,0,0,0-2.91-2.91Z"/><path class="cls-2" d="M34.47,39.05a1,1,0,0,1-.82-.46l-9.37-15a1,1,0,1,1,1.65-1l9.37,15a1,1,0,0,1-.82,1.49Z"/><path class="cls-2" d="M57.87,93.24c-14.52,0-36.13-2-36.13-7.67V52.09c0-7.48,16.53-19.39,36.13-19.39C77.64,32.7,94,45.54,94,52.09V85.57C94,91.2,72.39,93.24,57.87,93.24Zm0-58.6c-18.71,0-34.19,11.55-34.19,17.44V85.57c0,2,11.74,5.73,34.19,5.73s34.19-3.73,34.19-5.73V52.09C92.06,47,77.26,34.65,57.87,34.65Z"/></svg>