<svg id="Calque_1" data-name="Calque 1" xmlns="http://www.w3.org/2000/svg" viewBox="0 0 116 116"><defs><style>.cls-1{fill:none;stroke:#22ffbd;stroke-miterlimit:10;stroke-width:2px;}.cls-2{fill:#22ffbd;}</style></defs><title>icone_projet</title><circle class="cls-1" cx="58" cy="58" r="57"/><path class="cls-2" d="M86.86,91.4H28.34a3.81,3.81,0,0,1-3.81-3.81V29.08a3.81,3.81,0,0,1,3.81-3.81H86.86a3.81,3.81,0,0,1,3.81,3.81V87.59A3.81,3.81,0,0,1,86.86,91.4ZM28.34,27a2.07,2.07,0,0,0-2.07,2.07V87.59a2.07,2.07,0,0,0,2.07,2.07H86.86a2.07,2.07,0,0,0,2.07-2.07V29.08A2.07,2.07,0,0,0,86.86,27Z"/><circle class="cls-2" cx="29.76" cy="30.49" r="1.74"/><circle class="cls-2" cx="34.98" cy="30.49" r="1.74"/><circle class="cls-2" cx="40.2" cy="30.49" r="1.74"/><rect class="cls-2" x="29.76" y="44.42" width="33.06" height="3.48"/><rect class="cls-2" x="29.76" y="56.6" width="40.03" height="3.48"/><rect class="cls-2" x="29.76" y="50.51" width="50.47" height="3.48"/><path class="cls-2" d="M42.81,81H29.76V67.91H42.81ZM31.5,79.22h9.57V69.65H31.5Z"/><path class="cls-2" d="M56.95,81H43.9V67.91H56.95ZM45.64,79.22h9.57V69.65H45.64Z"/><path class="cls-2" d="M71.09,81H58V67.91H71.09ZM59.78,79.22h9.57V69.65H59.78Z"/><rect class="cls-2" x="25.41" y="33.97" width="64.39" height="1.74"/></svg>