<svg id="Calque_1" data-name="Calque 1" xmlns="http://www.w3.org/2000/svg" viewBox="0 0 116 116"><defs><style>.cls-1,.cls-3{fill:none;stroke:#22ffbd;stroke-width:2px;}.cls-1{stroke-miterlimit:10;}.cls-2{fill:#22ffbd;}.cls-3{stroke-linejoin:round;}</style></defs><title>icone_programme</title><circle class="cls-1" cx="58" cy="58" r="57"/><path class="cls-2" d="M87.19,91.4H28.68a3.81,3.81,0,0,1-3.81-3.81V29.08a3.81,3.81,0,0,1,3.81-3.81H87.19A3.81,3.81,0,0,1,91,29.08V87.59A3.81,3.81,0,0,1,87.19,91.4ZM28.68,27a2.07,2.07,0,0,0-2.07,2.07V87.59a2.07,2.07,0,0,0,2.07,2.07H87.19a2.07,2.07,0,0,0,2.07-2.07V29.08A2.07,2.07,0,0,0,87.19,27Z" transform="translate(0)"/><polyline class="cls-3" points="43 91 43 74 37 74"/><circle class="cls-3" cx="35" cy="74" r="3"/><polyline class="cls-3" points="51 91 51 62.5 26 62.5"/><polyline class="cls-3" points="59 91 59 53 48 53"/><circle class="cls-3" cx="45" cy="53" r="3"/><circle class="cls-3" cx="79" cy="55" r="3"/><path class="cls-3" d="M69,90V76l10-8V57" transform="translate(0)"/><polyline class="cls-3" points="55 27 55 41 74 41"/><circle class="cls-3" cx="77" cy="41" r="3"/><polyline class="cls-3" points="45 26 45 37 36 37 36 47 26 47"/></svg>